<svg viewBox="0 0 561 451" fill="none" xmlns="http://www.w3.org/2000/svg">
    <path
        d="M0 30C0 13.4315 13.4315 0 30 0H531C547.569 0 561 13.4315 561 30V421C561 437.569 547.569 451 531 451H30C13.4314 451 0 437.569 0 421V30Z"
        fill="#FFCFCF" />
    <rect x="7.5" y="7.5" width="546" height="436" rx="22.5" stroke="#E7564F" stroke-width="15" />
    <line x1="3" y1="93.5" x2="561" y2="93.5" stroke="#E7564F" stroke-width="15" />
    <line x1="70" y1="49" x2="91" y2="49" stroke="#7BB1F3" stroke-width="20" stroke-linecap="round" />
    <line x1="177" y1="49" x2="227" y2="49" stroke="#7BB1F3" stroke-width="20" stroke-linecap="round" />
    <line x1="76" y1="216" x2="157" y2="216" stroke="#7BB1F3" stroke-width="20" stroke-linecap="round" />
    <line x1="76" y1="253" x2="157" y2="253" stroke="#7BB1F3" stroke-width="20" stroke-linecap="round" />
    <line x1="323" y1="49" x2="507" y2="49" stroke="#7BB1F3" stroke-width="20" stroke-linecap="round" />
    <path
        d="M75.675 331.3H89.55L82.8 311.65H82.65L75.675 331.3ZM76.8 298.45H88.875L108.9 352H96.675L92.625 340.075H72.6L68.4 352H56.55L76.8 298.45ZM125.293 323.65H134.443C135.793 323.65 137.093 323.55 138.343 323.35C139.593 323.15 140.693 322.775 141.643 322.225C142.593 321.625 143.343 320.8 143.893 319.75C144.493 318.7 144.793 317.325 144.793 315.625C144.793 313.925 144.493 312.55 143.893 311.5C143.343 310.45 142.593 309.65 141.643 309.1C140.693 308.5 139.593 308.1 138.343 307.9C137.093 307.7 135.793 307.6 134.443 307.6H125.293V323.65ZM113.518 298.45H137.668C141.018 298.45 143.868 298.95 146.218 299.95C148.568 300.9 150.468 302.175 151.918 303.775C153.418 305.375 154.493 307.2 155.143 309.25C155.843 311.3 156.193 313.425 156.193 315.625C156.193 317.775 155.843 319.9 155.143 322C154.493 324.05 153.418 325.875 151.918 327.475C150.468 329.075 148.568 330.375 146.218 331.375C143.868 332.325 141.018 332.8 137.668 332.8H125.293V352H113.518V298.45ZM163.542 298.45H175.317V352H163.542V298.45Z"
        fill="#7BB1F3" />
    <path
        d="M411.863 265C411.863 292.614 389.477 315 361.863 315C334.248 315 311.863 292.614 311.863 265C311.863 237.386 334.248 215 361.863 215C389.477 215 411.863 237.386 411.863 265Z"
        stroke="#7BB1F3" stroke-width="15" />
    <mask id="path-11-inside-1_305_96" fill="white">
        <path fill-rule="evenodd" clip-rule="evenodd"
            d="M337 152C337 146.477 341.477 142 347 142H372C377.523 142 382 146.477 382 152V173.24C389.677 175.049 396.987 177.821 403.796 181.424L418.013 167.098C421.903 163.178 428.21 163.178 432.101 167.098L449.711 184.843C453.601 188.763 453.601 195.119 449.711 199.039L437.316 211.529C443.308 220.378 447.827 230.322 450.516 241H470C475.523 241 480 245.477 480 251V276C480 281.523 475.523 286 470 286H450.762C448.556 295.187 444.999 303.842 440.316 311.741L455.711 327.254C459.601 331.174 459.601 337.53 455.711 341.45L438.101 359.195C434.21 363.115 427.903 363.115 424.013 359.195L408.713 343.778C400.549 348.761 391.56 352.507 382 354.76V372C382 377.523 377.523 382 372 382H359.5H347C341.477 382 337 377.523 337 372V354.076C326.794 351.339 317.281 346.887 308.785 341.045L294.742 355.195C290.852 359.115 284.544 359.115 280.654 355.195L263.044 337.45C259.154 333.53 259.154 327.174 263.044 323.254L278.909 307.268C275.441 300.612 272.748 293.482 270.951 286H250C244.477 286 240 281.523 240 276L240 251C240 245.477 244.477 241 250 241H271.197C273.464 231.998 277.031 223.519 281.685 215.777L269.044 203.039C265.154 199.119 265.154 192.763 269.044 188.843L286.654 171.098C290.544 167.178 296.852 167.178 300.742 171.098L313.479 183.932C320.735 179.563 328.634 176.167 337 173.923V152Z" />
    </mask>
    <path
        d="M382 173.24H367V185.116L378.56 187.84L382 173.24ZM403.796 181.424L396.781 194.683L406.61 199.883L414.443 191.99L403.796 181.424ZM418.013 167.098L407.366 156.532L407.366 156.532L418.013 167.098ZM432.101 167.098L421.454 177.664L421.454 177.664L432.101 167.098ZM449.711 184.843L460.358 174.277L460.358 174.277L449.711 184.843ZM449.711 199.039L460.358 209.605L460.358 209.605L449.711 199.039ZM437.316 211.529L426.668 200.963L417.976 209.722L424.895 219.94L437.316 211.529ZM450.516 241L435.971 244.664L438.826 256H450.516V241ZM450.762 286V271H438.938L436.177 282.497L450.762 286ZM440.316 311.741L427.413 304.09L421.495 314.071L429.669 322.307L440.316 311.741ZM455.711 327.254L445.064 337.82L445.064 337.82L455.711 327.254ZM455.711 341.45L466.358 352.016L466.358 352.016L455.711 341.45ZM438.101 359.195L427.454 348.629L427.454 348.629L438.101 359.195ZM424.013 359.195L434.66 348.629L434.66 348.629L424.013 359.195ZM408.713 343.778L419.36 333.212L411.012 324.8L400.897 330.975L408.713 343.778ZM382 354.76L378.56 340.16L367 342.883V354.76H382ZM337 354.076H352V342.57L340.886 339.588L337 354.076ZM308.785 341.045L317.284 328.684L306.962 321.587L298.138 330.479L308.785 341.045ZM294.742 355.195L305.389 365.761L305.389 365.761L294.742 355.195ZM280.654 355.195L270.007 365.761L270.007 365.761L280.654 355.195ZM263.044 337.45L273.691 326.884L273.691 326.884L263.044 337.45ZM263.044 323.254L273.691 333.82L273.691 333.82L263.044 323.254ZM278.909 307.268L289.556 317.834L297.275 310.055L292.211 300.336L278.909 307.268ZM270.951 286L285.536 282.497L282.775 271H270.951V286ZM240 276L225 276L240 276ZM240 251L255 251L240 251ZM271.197 241V256H282.887L285.743 244.664L271.197 241ZM281.685 215.777L294.541 223.506L300.557 213.499L292.333 205.211L281.685 215.777ZM269.044 203.039L279.691 192.473L279.691 192.473L269.044 203.039ZM269.044 188.843L279.691 199.409L279.691 199.409L269.044 188.843ZM286.654 171.098L276.007 160.532L276.007 160.532L286.654 171.098ZM300.742 171.098L311.389 160.532L311.389 160.532L300.742 171.098ZM313.479 183.932L302.832 194.498L311.127 202.857L321.216 196.783L313.479 183.932ZM337 173.923L340.886 188.411L352 185.43V173.923H337ZM347 127C333.193 127 322 138.193 322 152H352C352 154.761 349.761 157 347 157V127ZM372 127H347V157H372V127ZM397 152C397 138.193 385.807 127 372 127V157C369.239 157 367 154.761 367 152H397ZM397 173.24V152H367V173.24H397ZM378.56 187.84C384.973 189.351 391.083 191.668 396.781 194.683L410.81 168.165C402.89 163.975 394.381 160.747 385.44 158.64L378.56 187.84ZM407.366 156.532L393.149 170.858L414.443 191.99L428.66 177.664L407.366 156.532ZM442.748 156.532C432.99 146.7 417.123 146.7 407.366 156.532L428.66 177.664C426.683 179.656 423.43 179.656 421.454 177.664L442.748 156.532ZM460.358 174.277L442.748 156.532L421.454 177.664L439.064 195.409L460.358 174.277ZM460.358 209.605C470.052 199.836 470.052 184.046 460.358 174.277L439.064 195.409C437.15 193.481 437.15 190.401 439.064 188.473L460.358 209.605ZM447.963 222.095L460.358 209.605L439.064 188.473L426.668 200.963L447.963 222.095ZM424.895 219.94C429.926 227.368 433.715 235.709 435.971 244.664L465.062 237.336C461.938 224.934 456.69 213.389 449.736 203.119L424.895 219.94ZM470 226H450.516V256H470V226ZM495 251C495 237.193 483.807 226 470 226V256C467.239 256 465 253.761 465 251H495ZM495 276V251H465V276H495ZM470 301C483.807 301 495 289.807 495 276H465C465 273.239 467.239 271 470 271V301ZM450.762 301H470V271H450.762V301ZM436.177 282.497C434.327 290.202 431.344 297.462 427.413 304.09L453.218 319.392C458.655 310.223 462.786 300.172 465.348 289.503L436.177 282.497ZM466.358 316.688L450.963 301.175L429.669 322.307L445.064 337.82L466.358 316.688ZM466.358 352.016C476.052 342.248 476.052 326.457 466.358 316.688L445.064 337.82C443.15 335.892 443.15 332.812 445.064 330.884L466.358 352.016ZM448.748 369.761L466.358 352.016L445.064 330.884L427.454 348.629L448.748 369.761ZM413.366 369.761C423.123 379.593 438.99 379.593 448.748 369.761L427.454 348.629C429.43 346.637 432.683 346.637 434.66 348.629L413.366 369.761ZM398.066 354.344L413.366 369.761L434.66 348.629L419.36 333.212L398.066 354.344ZM400.897 330.975C394.061 335.147 386.545 338.278 378.56 340.16L385.44 369.36C396.575 366.736 407.037 362.374 416.528 356.581L400.897 330.975ZM397 372V354.76H367V372H397ZM372 397C385.807 397 397 385.807 397 372H367C367 369.239 369.239 367 372 367V397ZM359.5 397H372V367H359.5V397ZM347 397H359.5V367H347V397ZM322 372C322 385.807 333.193 397 347 397V367C349.761 367 352 369.239 352 372H322ZM322 354.076V372H352V354.076H322ZM340.886 339.588C332.362 337.302 324.404 333.58 317.284 328.684L300.286 353.405C310.158 360.193 321.226 365.375 333.114 368.564L340.886 339.588ZM305.389 365.761L319.432 351.611L298.138 330.479L284.095 344.629L305.389 365.761ZM270.007 365.761C279.764 375.593 295.632 375.593 305.389 365.761L284.095 344.629C286.072 342.637 289.324 342.637 291.301 344.629L270.007 365.761ZM252.397 348.016L270.007 365.761L291.301 344.629L273.691 326.884L252.397 348.016ZM252.397 312.688C242.703 322.457 242.703 338.248 252.397 348.016L273.691 326.884C275.605 328.812 275.605 331.892 273.691 333.82L252.397 312.688ZM268.262 296.702L252.397 312.688L273.691 333.82L289.556 317.834L268.262 296.702ZM292.211 300.336C289.302 294.753 287.044 288.773 285.536 282.497L256.366 289.503C258.452 298.192 261.58 306.472 265.606 314.199L292.211 300.336ZM250 301H270.951V271H250V301ZM225 276C225 289.807 236.193 301 250 301V271C252.761 271 255 273.239 255 276L225 276ZM225 251L225 276L255 276L255 251L225 251ZM250 226C236.193 226 225 237.193 225 251L255 251C255 253.761 252.761 256 250 256V226ZM271.197 226H250V256H271.197V226ZM285.743 244.664C287.644 237.115 290.636 230.003 294.541 223.506L268.83 208.049C263.427 217.036 259.284 226.882 256.651 237.336L285.743 244.664ZM258.397 213.605L271.038 226.343L292.333 205.211L279.691 192.473L258.397 213.605ZM258.397 178.277C248.703 188.045 248.703 203.836 258.397 213.605L279.691 192.473C281.605 194.401 281.605 197.481 279.691 199.409L258.397 178.277ZM276.007 160.532L258.397 178.277L279.691 199.409L297.301 181.664L276.007 160.532ZM311.389 160.532C301.632 150.7 285.764 150.7 276.007 160.532L297.301 181.664C295.324 183.656 292.072 183.656 290.095 181.664L311.389 160.532ZM324.126 173.366L311.389 160.532L290.095 181.664L302.832 194.498L324.126 173.366ZM321.216 196.783C327.292 193.124 333.898 190.286 340.886 188.411L333.114 159.436C323.371 162.049 314.177 166.003 305.741 171.082L321.216 196.783ZM322 152V173.923H352V152H322Z"
        fill="#7BB1F3" mask="url(#path-11-inside-1_305_96)" />
</svg>