<svg viewBox="0 0 1109 621" fill="none" xmlns="http://www.w3.org/2000/svg">
<g id="Frame 2" clip-path="url(#clip0_2_9)">
<rect width="1109" height="621" fill="url(#paint0_linear_2_9)"/>
<g id="Wave1" style="mix-blend-mode:multiply">
<path d="M109 493C18.9993 503 -1 539 -1 539V621H1109V127.5C1109 127.5 990.5 311.5 860 369C804.008 393.671 758.001 357.5 679 357.5C599.999 357.5 394.999 606.501 293 601.5C191.001 596.499 199.001 483 109 493Z" fill="url(#paint1_linear_2_9)"/>
</g>
<g id="Wave2" style="mix-blend-mode:multiply">
<path d="M110 519C19.9993 529 0 539 0 539V647H1110V117C1110 117 1000.88 389.853 861 395C799.855 397.25 769.001 317 690.001 317C611 317 463.999 590.001 362 585C260.001 579.999 200.001 509 110 519Z" fill="url(#paint2_linear_2_9)"/>
</g>
</g>
<defs>
<linearGradient id="paint0_linear_2_9" x1="554" y1="0" x2="554" y2="621" gradientUnits="userSpaceOnUse">
<stop stop-color="#D1DECB"/>
<stop offset="1" stop-color="#CA4F47"/>
</linearGradient>
<linearGradient id="paint1_linear_2_9" x1="554" y1="540" x2="554" y2="621" gradientUnits="userSpaceOnUse">
<stop stop-color="#F171BE"/>
<stop offset="1" stop-color="#E167B0" stop-opacity="0"/>
</linearGradient>
<linearGradient id="paint2_linear_2_9" x1="555" y1="566" x2="555" y2="647" gradientUnits="userSpaceOnUse">
<stop stop-color="#F171BE"/>
<stop offset="1" stop-color="#E167B0" stop-opacity="0"/>
</linearGradient>
<clipPath id="clip0_2_9">
<rect width="1109" height="621" fill="white"/>
</clipPath>
</defs>
</svg>
