<svg viewBox="0 0 931 890" fill="none" xmlns="http://www.w3.org/2000/svg">
<g clip-path="url(#clip0_312_17)">
<path d="M688 504V624C688 629.523 692.477 634 698 634H831" stroke="#3D3B3E" stroke-width="25" stroke-linecap="round"/>
<path d="M356 505V771C356 776.523 351.523 781 346 781H213" stroke="#3D3B3E" stroke-width="25" stroke-linecap="round"/>
<path d="M570 496V762C570 767.523 574.477 772 580 772H713" stroke="#3D3B3E" stroke-width="25" stroke-linecap="round"/>
<path d="M463 496V791C463 793.761 460.761 796 458 796V796" stroke="#3D3B3E" stroke-width="25" stroke-linecap="round"/>
<path d="M160.32 205.71L173.316 208.56L175.349 195.426L175.35 195.422L175.35 195.421L175.351 195.413L175.36 195.358C175.371 195.292 175.39 195.179 175.417 195.02C175.471 194.703 175.558 194.204 175.683 193.54C175.932 192.212 176.328 190.222 176.9 187.691C178.045 182.624 179.886 175.424 182.64 167.044C188.186 150.165 197.254 129.069 211.367 110.925C225.394 92.8903 244.042 78.1966 268.988 72.8307C293.975 67.4559 327.117 71.0444 370.861 93.1569L380.593 98.0766L386.78 89.1127L386.782 89.1093L386.784 89.107L386.787 89.1018L386.826 89.047L386.871 88.9833C386.914 88.9224 386.972 88.8403 387.045 88.7378C387.25 88.4496 387.574 88.0006 388.013 87.4072C388.89 86.22 390.223 84.4581 391.983 82.254C395.507 77.8405 400.717 71.6852 407.371 64.8373C420.772 51.0467 439.585 34.9113 461.879 24.2842C484.015 13.7319 509.104 8.80645 535.939 16.4027C562.884 24.0303 593.431 44.8032 625.343 89.2867L630.268 96.1531L638.476 94.1409C673.371 85.5857 712.156 95.3002 736.924 118.023C760.836 139.96 772.766 174.98 753.01 221.076L746.457 236.367L762.968 238.406C812.602 244.535 846.815 261.094 868.697 281.983C890.497 302.796 900.794 328.579 901.632 354.868C903.307 407.44 867.014 462.92 805.873 482.565C804.755 482.602 803.096 482.656 800.931 482.727C796.583 482.868 790.19 483.073 782.015 483.327C765.666 483.834 742.191 484.537 713.696 485.318C656.703 486.879 579.646 488.753 499.367 490.002C419.071 491.251 335.63 491.874 265.846 490.939C196.585 490.011 142.04 487.547 116.963 482.934C67.3554 463.407 38.7479 434.692 24.6693 403.945C10.4188 372.822 10.4055 338.201 20.5966 306.234C30.8112 274.194 51.0872 245.493 76.3286 226.65C101.501 207.858 130.961 199.27 160.32 205.71Z" fill="#A3CEF8" stroke="#7BB1F3" stroke-width="25"/>
<path d="M358.5 234L288.438 304.062C284.189 308.311 282.064 310.436 281.345 312.884C280.765 314.859 280.809 316.964 281.47 318.913C282.289 321.33 284.499 323.365 288.92 327.435L358.5 391.5M423 431L501.5 202.5M561.5 234L636.635 303.617C641.355 307.99 643.715 310.176 644.506 312.734C645.144 314.794 645.099 317.006 644.377 319.038C643.481 321.561 641.034 323.649 636.139 327.825L561.5 391.5L559.5 393" stroke="#E7564F" stroke-width="25" stroke-linecap="round"/>
<circle cx="872" cy="629" r="49" fill="#FFCFCF" stroke="#E7564F" stroke-width="20"/>
<circle cx="200" cy="781" r="49" fill="#FFCFCF" stroke="#E7564F" stroke-width="20"/>
<circle cx="458" cy="831" r="49" fill="#FFCFCF" stroke="#E7564F" stroke-width="20"/>
<circle cx="759" cy="772" r="49" fill="#FFCFCF" stroke="#E7564F" stroke-width="20"/>
<path d="M231 494V613.5C231 619.023 226.523 623.5 221 623.5H121.5" stroke="#3D3B3E" stroke-width="25" stroke-linecap="round"/>
<circle cx="82" cy="624" r="49" fill="#FFCFCF" stroke="#E7564F" stroke-width="20"/>
</g>
<defs>
<clipPath id="clip0_312_17">
<rect width="931" height="890" fill="white"/>
</clipPath>
</defs>
</svg>
