<svg viewBox="0 0 533 394" fill="none" xmlns="http://www.w3.org/2000/svg">
<g clip-path="url(#clip0_305_54)">
<mask id="path-1-inside-1_305_54" fill="white">
<path fill-rule="evenodd" clip-rule="evenodd" d="M241 43.9995C235.477 43.9995 231 48.4767 231 53.9995V64.2182C231 82.0363 209.457 90.9596 196.858 78.3603L189.569 71.071C185.663 67.1657 179.332 67.1657 175.426 71.071L140.071 106.426C136.166 110.332 136.166 116.663 140.071 120.568L146.86 127.357C159.459 139.957 150.536 161.499 132.718 161.499H123.5C117.977 161.499 113.5 165.977 113.5 171.499L113.5 221.499C113.5 227.022 117.977 231.499 123.5 231.499H132.883C150.701 231.499 159.625 253.042 147.025 265.642L140.071 272.596C136.166 276.501 136.166 282.833 140.071 286.738L175.426 322.093C179.332 325.999 185.663 325.999 189.569 322.093L196.858 314.804C209.457 302.205 231 311.128 231 328.946V339C231 344.522 235.477 349 241 349H291C296.523 349 301 344.522 301 339V329.782C301 311.964 322.543 303.04 335.142 315.64L341.596 322.094C345.502 325.999 351.833 325.999 355.739 322.094L391.094 286.739C394.999 282.833 394.999 276.502 391.094 272.596L384.139 265.642C371.54 253.042 380.463 231.5 398.281 231.5H408.5C414.023 231.5 418.5 227.022 418.5 221.5V171.5C418.5 165.977 414.023 161.5 408.5 161.5H398.447C380.629 161.5 371.705 139.957 384.305 127.357L391.094 120.568C394.999 116.663 394.999 110.331 391.094 106.426L355.739 71.0706C351.833 67.1653 345.502 67.1653 341.596 71.0706L335.142 77.5249C322.543 90.1242 301 81.2009 301 63.3828V53.9995C301 48.4767 296.523 43.9995 291 43.9995H241Z"/>
</mask>
<path fill-rule="evenodd" clip-rule="evenodd" d="M241 43.9995C235.477 43.9995 231 48.4767 231 53.9995V64.2182C231 82.0363 209.457 90.9596 196.858 78.3603L189.569 71.071C185.663 67.1657 179.332 67.1657 175.426 71.071L140.071 106.426C136.166 110.332 136.166 116.663 140.071 120.568L146.86 127.357C159.459 139.957 150.536 161.499 132.718 161.499H123.5C117.977 161.499 113.5 165.977 113.5 171.499L113.5 221.499C113.5 227.022 117.977 231.499 123.5 231.499H132.883C150.701 231.499 159.625 253.042 147.025 265.642L140.071 272.596C136.166 276.501 136.166 282.833 140.071 286.738L175.426 322.093C179.332 325.999 185.663 325.999 189.569 322.093L196.858 314.804C209.457 302.205 231 311.128 231 328.946V339C231 344.522 235.477 349 241 349H291C296.523 349 301 344.522 301 339V329.782C301 311.964 322.543 303.04 335.142 315.64L341.596 322.094C345.502 325.999 351.833 325.999 355.739 322.094L391.094 286.739C394.999 282.833 394.999 276.502 391.094 272.596L384.139 265.642C371.54 253.042 380.463 231.5 398.281 231.5H408.5C414.023 231.5 418.5 227.022 418.5 221.5V171.5C418.5 165.977 414.023 161.5 408.5 161.5H398.447C380.629 161.5 371.705 139.957 384.305 127.357L391.094 120.568C394.999 116.663 394.999 110.331 391.094 106.426L355.739 71.0706C351.833 67.1653 345.502 67.1653 341.596 71.0706L335.142 77.5249C322.543 90.1242 301 81.2009 301 63.3828V53.9995C301 48.4767 296.523 43.9995 291 43.9995H241Z" fill="#A3CEF8"/>
<path d="M175.426 71.071L168.355 63.9999L168.355 63.9999L175.426 71.071ZM140.071 106.426L147.142 113.497L147.142 113.497L140.071 106.426ZM140.071 120.568L133 127.64L133 127.64L140.071 120.568ZM113.5 171.499L123.5 171.499V171.499H113.5ZM113.5 221.499L103.5 221.499L113.5 221.499ZM140.071 272.596L147.142 279.667L147.142 279.667L140.071 272.596ZM140.071 286.738L147.142 279.667L147.142 279.667L140.071 286.738ZM175.426 322.093L182.497 315.022L182.497 315.022L175.426 322.093ZM189.569 322.093L196.64 329.165L196.64 329.165L189.569 322.093ZM355.739 322.094L348.668 315.023L348.668 315.023L355.739 322.094ZM391.094 286.739L384.023 279.667L384.023 279.667L391.094 286.739ZM391.094 272.596L384.023 279.667L391.094 272.596ZM391.094 120.568L384.023 113.497L384.023 113.497L391.094 120.568ZM391.094 106.426L384.023 113.497L384.023 113.497L391.094 106.426ZM355.739 71.0706L348.668 78.1416L348.668 78.1416L355.739 71.0706ZM341.596 71.0706L334.525 63.9995L334.525 63.9995L341.596 71.0706ZM335.142 77.5249L328.071 70.4539L335.142 77.5249ZM384.305 127.357L391.376 134.428L384.305 127.357ZM384.139 265.642L377.068 272.713L384.139 265.642ZM335.142 315.64L328.071 322.711L335.142 315.64ZM147.025 265.642L139.954 258.571L147.025 265.642ZM146.86 127.357L139.789 134.428L146.86 127.357ZM241 53.9995V53.9995V33.9995C229.954 33.9995 221 42.9538 221 53.9995H241ZM241 64.2182V53.9995H221V64.2182H241ZM182.497 78.1421L189.787 85.4314L203.929 71.2892L196.64 63.9999L182.497 78.1421ZM182.497 78.1421L182.497 78.1421L196.64 63.9999C188.829 56.1894 176.166 56.1894 168.355 63.9999L182.497 78.1421ZM147.142 113.497L182.497 78.142L168.355 63.9999L133 99.3553L147.142 113.497ZM147.142 113.497L147.142 113.497L133 99.3553C125.189 107.166 125.19 119.829 133 127.64L147.142 113.497ZM153.931 120.286L147.142 113.497L133 127.64L139.789 134.428L153.931 120.286ZM123.5 171.499H132.718V151.499H123.5V171.499ZM123.5 171.499H123.5V151.499C112.454 151.499 103.5 160.454 103.5 171.499H123.5ZM123.5 221.499L123.5 171.499L103.5 171.499L103.5 221.499L123.5 221.499ZM123.5 221.499L123.5 221.499L103.5 221.499C103.5 232.545 112.454 241.499 123.5 241.499V221.499ZM132.883 221.499H123.5V241.499H132.883V221.499ZM147.142 279.667L154.097 272.713L139.954 258.571L133 265.525L147.142 279.667ZM147.142 279.667L147.142 279.667L133 265.525C125.19 273.335 125.19 285.999 133 293.809L147.142 279.667ZM182.497 315.022L147.142 279.667L133 293.809L168.355 329.165L182.497 315.022ZM182.498 315.022H182.497L168.355 329.165C176.166 336.975 188.829 336.975 196.64 329.165L182.498 315.022ZM189.787 307.733L182.498 315.022L196.64 329.165L203.929 321.875L189.787 307.733ZM241 339V328.946H221V339H241ZM241 339H221C221 350.045 229.954 359 241 359V339ZM291 339H241V359H291V339ZM291 339V359C302.046 359 311 350.045 311 339H291ZM291 329.782V339H311V329.782H291ZM348.668 315.023L342.213 308.568L328.071 322.711L334.525 329.165L348.668 315.023ZM348.668 315.023L348.668 315.023L334.525 329.165C342.336 336.975 354.999 336.976 362.81 329.165L348.668 315.023ZM384.023 279.667L348.668 315.023L362.81 329.165L398.165 293.81L384.023 279.667ZM384.023 279.667L384.023 279.667L398.165 293.81C405.976 285.999 405.976 273.336 398.165 265.525L384.023 279.667ZM377.068 272.713L384.023 279.667L398.165 265.525L391.21 258.571L377.068 272.713ZM408.5 221.5H398.281V241.5H408.5V221.5ZM408.5 221.5V241.5C419.546 241.5 428.5 232.545 428.5 221.5H408.5ZM408.5 171.5V221.5H428.5V171.5H408.5ZM408.5 171.5H428.5C428.5 160.454 419.546 151.5 408.5 151.5V171.5ZM398.447 171.5H408.5V151.5H398.447V171.5ZM384.023 113.497L377.234 120.286L391.376 134.428L398.165 127.639L384.023 113.497ZM384.023 113.497L384.023 113.497L398.165 127.639C405.976 119.829 405.975 107.165 398.165 99.3548L384.023 113.497ZM348.668 78.1416L384.023 113.497L398.165 99.3548L362.81 63.9995L348.668 78.1416ZM348.668 78.1416L348.668 78.1416L362.81 63.9995C354.999 56.189 342.336 56.189 334.525 63.9995L348.668 78.1416ZM342.213 84.596L348.668 78.1416L334.525 63.9995L328.071 70.4539L342.213 84.596ZM291 53.9995V63.3828H311V53.9995H291ZM291 53.9995V53.9995H311C311 42.9538 302.046 33.9995 291 33.9995V53.9995ZM241 53.9995H291V33.9995H241V53.9995ZM328.071 70.4539C321.771 76.7535 311 72.2918 311 63.3828H291C291 90.11 323.314 103.495 342.213 84.596L328.071 70.4539ZM398.447 151.5C389.538 151.5 385.076 140.728 391.376 134.428L377.234 120.286C358.335 139.185 371.72 171.5 398.447 171.5V151.5ZM391.21 258.571C384.911 252.271 389.372 241.5 398.281 241.5V221.5C371.554 221.5 358.169 253.814 377.068 272.713L391.21 258.571ZM311 329.782C311 320.873 321.771 316.411 328.071 322.711L342.213 308.568C323.314 289.67 291 303.054 291 329.782H311ZM203.929 321.875C210.229 315.576 221 320.037 221 328.946H241C241 302.219 208.686 288.834 189.787 307.733L203.929 321.875ZM132.883 241.499C141.792 241.499 146.254 252.271 139.954 258.571L154.097 272.713C172.995 253.814 159.61 221.499 132.883 221.499V241.499ZM139.789 134.428C146.089 140.728 141.627 151.499 132.718 151.499V171.499C159.445 171.499 172.83 139.185 153.931 120.286L139.789 134.428ZM221 64.2182C221 73.1272 210.229 77.5889 203.929 71.2892L189.787 85.4314C208.686 104.33 241 90.9453 241 64.2182H221Z" fill="#7BB1F3" mask="url(#path-1-inside-1_305_54)"/>
<circle cx="266.5" cy="196.5" r="64.5" stroke="#F5F5F5" stroke-width="20"/>
<path fill-rule="evenodd" clip-rule="evenodd" d="M48.266 36.9995C44.0621 45.3058 35.446 51 25.5 51C11.4167 51 0 39.5833 0 25.5C0 11.4167 11.4167 0 25.5 0C34.6254 0 42.6312 4.79332 47.137 11.9995H135.5H141H150.5C156.023 11.9995 160.5 16.4767 160.5 21.9995V61.9995C160.5 67.5224 156.023 71.9995 150.5 71.9995H145.5C139.977 71.9995 135.5 67.5224 135.5 61.9995V46.9995C135.5 41.4767 131.023 36.9995 125.5 36.9995H48.266Z" fill="#E7564F"/>
<path fill-rule="evenodd" clip-rule="evenodd" d="M48.266 356C44.0621 347.694 35.446 342 25.5 342C11.4167 342 0 353.417 0 367.5C0 381.583 11.4167 393 25.5 393C34.6254 393 42.6312 388.207 47.137 381H135.5H141H150.5C156.023 381 160.5 376.523 160.5 371V331C160.5 325.478 156.023 321 150.5 321H145.5C139.977 321 135.5 325.478 135.5 331V346C135.5 351.523 131.023 356 125.5 356H48.266Z" fill="#E7564F"/>
<path fill-rule="evenodd" clip-rule="evenodd" d="M482.234 357C486.438 348.694 495.054 343 505 343C519.083 343 530.5 354.417 530.5 368.5C530.5 382.583 519.083 394 505 394C495.875 394 487.869 389.207 483.363 382H395H389.5H380C374.477 382 370 377.523 370 372V332C370 326.478 374.477 322 380 322H385C390.523 322 395 326.478 395 332V347C395 352.523 399.477 357 405 357H482.234Z" fill="#E7564F"/>
<path fill-rule="evenodd" clip-rule="evenodd" d="M48.5572 189.595C44.4694 180.967 35.6815 175 25.5 175C11.4167 175 0 186.417 0 200.5C0 214.583 11.4167 226 25.5 226C34.363 226 42.17 221.478 46.7398 214.616L94.0007 214.108C99.5232 214.048 103.952 209.523 103.893 204.001L103.839 199.001C103.779 193.479 99.2544 189.05 93.7319 189.109L48.5572 189.595Z" fill="#E7564F"/>
<path fill-rule="evenodd" clip-rule="evenodd" d="M484.336 189.595C488.424 180.967 497.212 175 507.393 175C521.476 175 532.893 186.417 532.893 200.5C532.893 214.583 521.476 226 507.393 226C498.53 226 490.723 221.478 486.153 214.616L438.892 214.108C433.37 214.048 428.941 209.523 429 204.001L429.054 199.001C429.114 193.479 433.639 189.05 439.161 189.109L484.336 189.595Z" fill="#E7564F"/>
<path fill-rule="evenodd" clip-rule="evenodd" d="M482.234 36.9995C486.438 45.3058 495.054 51 505 51C519.083 51 530.5 39.5833 530.5 25.5C530.5 11.4167 519.083 0 505 0C495.875 0 487.869 4.79332 483.363 11.9995H395H389.5H380C374.477 11.9995 370 16.4767 370 21.9995V61.9995C370 67.5224 374.477 71.9995 380 71.9995H385C390.523 71.9995 395 67.5224 395 61.9995V46.9995C395 41.4767 399.477 36.9995 405 36.9995H482.234Z" fill="#E7564F"/>
<circle cx="266.5" cy="197.5" r="55.5" fill="#FFCFCF"/>
</g>
<defs>
<clipPath id="clip0_305_54">
<rect width="533" height="394" fill="white"/>
</clipPath>
</defs>
</svg>
