<svg viewBox="0 0 123 130" fill="none" xmlns="http://www.w3.org/2000/svg">
<g clip-path="url(#clip0_313_41)">
<path d="M100 17H101V16V8C101 4.13401 97.866 1 94 1H28C24.134 1 21 4.13401 21 8V16V17H22H100Z" fill="#C38AF7" stroke="#2E3B62" stroke-width="2"/>
<path d="M19 29C19 29.5523 19.4477 30 20 30C20.5523 30 21 29.5523 21 29H19ZM19 20V29H21V20H19Z" fill="#2E3B62"/>
<path d="M101 18L101 47" stroke="#2E3B62" stroke-width="2" stroke-linecap="round"/>
<path d="M65 128L80 128" stroke="#2E3B62" stroke-width="2" stroke-linecap="round"/>
<rect x="22" y="20" width="78" height="107" fill="#E4ECFD"/>
<g filter="url(#filter0_b_313_41)">
<rect x="2" y="36" width="60" height="92" rx="6" fill="#F7CC64"/>
<rect x="1" y="35" width="62" height="94" rx="7" stroke="#2E3B62" stroke-width="2"/>
</g>
<rect x="84" y="55" width="38" height="74" rx="4" fill="#E5EBFD" stroke="#2E3B63" stroke-width="2"/>
<rect x="85" y="67" width="36" height="51" fill="#55BBF9"/>
<line x1="32" y1="10" x2="35" y2="10" stroke="#2E3B62" stroke-width="2" stroke-linecap="round"/>
<line x1="50" y1="10" x2="53" y2="10" stroke="#2E3B62" stroke-width="2" stroke-linecap="round"/>
<line x1="41" y1="10" x2="44" y2="10" stroke="#2E3B62" stroke-width="2" stroke-linecap="round"/>
<line x1="85" y1="120" x2="123" y2="120" stroke="#2E3B63" stroke-width="2"/>
<line x1="85" y1="120" x2="123" y2="120" stroke="#2E3B63" stroke-width="2"/>
<line x1="85" y1="120" x2="123" y2="120" stroke="#2E3B63" stroke-width="2"/>
<line x1="85" y1="66" x2="123" y2="66" stroke="#2E3B63" stroke-width="2"/>
<line x1="85" y1="66" x2="123" y2="66" stroke="#2E3B63" stroke-width="2"/>
<line x1="85" y1="66" x2="123" y2="66" stroke="#2E3B63" stroke-width="2"/>
<mask id="mask0_313_41" style="mask-type:alpha" maskUnits="userSpaceOnUse" x="5" y="36" width="50" height="92">
<rect x="5.61206" y="36" width="48.7612" height="91.418" fill="#F7CC64"/>
</mask>
<g mask="url(#mask0_313_41)">
<rect width="10.7621" height="109.458" transform="matrix(0.972949 0.231019 -0.234312 0.972162 36.3135 21.6592)" fill="#F9D98C"/>
<rect width="6.83182" height="109.458" transform="matrix(0.972949 0.231019 -0.234312 0.972162 49.3191 25.2451)" fill="#F9D98C"/>
</g>
<mask id="mask1_313_41" style="mask-type:alpha" maskUnits="userSpaceOnUse" x="85" y="67" width="37" height="51">
<rect x="85.0747" y="67.0146" width="36.1194" height="50.5672" fill="#F7CC64"/>
</mask>
<g mask="url(#mask1_313_41)">
<rect width="7.87725" height="61.8506" transform="matrix(0.984642 0.174585 -0.30716 0.951658 107.816 59.084)" fill="#65CDFA"/>
<rect width="5.00051" height="61.8506" transform="matrix(0.984642 0.174585 -0.30716 0.951658 117.45 61.0654)" fill="#65CDFA"/>
</g>
</g>
<defs>
<filter id="filter0_b_313_41" x="-4" y="30" width="72" height="104" filterUnits="userSpaceOnUse" color-interpolation-filters="sRGB">
<feFlood flood-opacity="0" result="BackgroundImageFix"/>
<feGaussianBlur in="BackgroundImageFix" stdDeviation="2"/>
<feComposite in2="SourceAlpha" operator="in" result="effect1_backgroundBlur_313_41"/>
<feBlend mode="normal" in="SourceGraphic" in2="effect1_backgroundBlur_313_41" result="shape"/>
</filter>
<clipPath id="clip0_313_41">
<rect width="123" height="130" fill="white"/>
</clipPath>
</defs>
</svg>
