<svg viewBox="0 0 2450 362" fill="none" xmlns="http://www.w3.org/2000/svg">
<path fill-rule="evenodd" clip-rule="evenodd" d="M5 5H166.68L299.328 144.891V5H453V356H299.328L166.68 214.5V356H5V5ZM692 356H522L630 7.5H894.5L1000.5 356H829L760.5 130L692 356ZM1620 355H1450.5L1556.5 7.5H1823L1927 355H1757.5L1689.5 131L1620 355ZM1996.5 7.5V355H2157V214L2224.5 280L2288 222V355H2444.5V7.5H2288L2224.5 73L2164.5 7.5H1996.5ZM981.5 9.5L1089.5 357H1361.5L1464 9.5H1300L1224.5 245L1149 9.5H981.5Z" fill="url(#paint0_linear_308_357)"/>
<path d="M166.68 5L170.309 1.55964L168.83 0H166.68V5ZM5 5V0H0V5H5ZM299.328 144.891L295.7 148.332L304.328 157.431V144.891H299.328ZM299.328 5V0H294.328V5H299.328ZM453 5H458V0H453V5ZM453 356V361H458V356H453ZM299.328 356L295.681 359.42L297.162 361H299.328V356ZM166.68 214.5L170.328 211.08L161.68 201.856V214.5H166.68ZM166.68 356V361H171.68V356H166.68ZM5 356H0V361H5V356ZM522 356L517.224 354.52L515.216 361H522V356ZM692 356V361H695.709L696.785 357.45L692 356ZM630 7.5V2.5H626.315L625.224 6.01994L630 7.5ZM894.5 7.5L899.284 6.04501L898.205 2.5H894.5V7.5ZM1000.5 356V361H1007.25L1005.28 354.545L1000.5 356ZM829 356L824.215 357.45L825.291 361H829V356ZM760.5 130L765.285 128.55L760.5 112.763L755.715 128.55L760.5 130ZM1450.5 355L1445.72 353.541L1443.75 360H1450.5V355ZM1620 355V360H1623.68L1624.78 356.482L1620 355ZM1556.5 7.5V2.5H1552.8L1551.72 6.04118L1556.5 7.5ZM1823 7.5L1827.79 6.06642L1826.72 2.5H1823V7.5ZM1927 355V360H1933.72L1931.79 353.566L1927 355ZM1757.5 355L1752.72 356.452L1753.79 360H1757.5V355ZM1689.5 131L1694.28 129.548L1689.55 113.959L1684.72 129.518L1689.5 131ZM1996.5 355H1991.5V360H1996.5V355ZM1996.5 7.5V2.5H1991.5V7.5H1996.5ZM2157 355V360H2162V355H2157ZM2157 214L2160.5 210.425L2152 202.118V214H2157ZM2224.5 280L2221 283.575L2224.38 286.879L2227.87 283.692L2224.5 280ZM2288 222H2293V210.661L2284.63 218.308L2288 222ZM2288 355H2283V360H2288V355ZM2444.5 355V360H2449.5V355H2444.5ZM2444.5 7.5H2449.5V2.5H2444.5V7.5ZM2288 7.5V2.5H2285.88L2284.41 4.0197L2288 7.5ZM2224.5 73L2220.81 76.3773L2224.4 80.2897L2228.09 76.4803L2224.5 73ZM2164.5 7.5L2168.19 4.12265L2166.7 2.5H2164.5V7.5ZM1089.5 357L1084.73 358.484L1085.82 362H1089.5V357ZM981.5 9.5V4.5H974.71L976.725 10.9839L981.5 9.5ZM1361.5 357V362H1365.24L1366.3 358.415L1361.5 357ZM1464 9.5L1468.8 10.9146L1470.69 4.5H1464V9.5ZM1300 9.5V4.5H1296.35L1295.24 7.97355L1300 9.5ZM1224.5 245L1219.74 246.526L1224.5 261.378L1229.26 246.526L1224.5 245ZM1149 9.5L1153.76 7.97355L1152.65 4.5H1149V9.5ZM166.68 0H5V10H166.68V0ZM302.957 141.451L170.309 1.55964L163.052 8.44036L295.7 148.332L302.957 141.451ZM294.328 5V144.891H304.328V5H294.328ZM453 0H299.328V10H453V0ZM458 356V5H448V356H458ZM299.328 361H453V351H299.328V361ZM163.033 217.92L295.681 359.42L302.976 352.58L170.328 211.08L163.033 217.92ZM171.68 356V214.5H161.68V356H171.68ZM5 361H166.68V351H5V361ZM0 5V356H10V5H0ZM522 361H692V351H522V361ZM625.224 6.01994L517.224 354.52L526.776 357.48L634.776 8.98006L625.224 6.01994ZM894.5 2.5H630V12.5H894.5V2.5ZM1005.28 354.545L899.284 6.04501L889.716 8.95499L995.716 357.455L1005.28 354.545ZM829 361H1000.5V351H829V361ZM755.715 131.45L824.215 357.45L833.785 354.55L765.285 128.55L755.715 131.45ZM696.785 357.45L765.285 131.45L755.715 128.55L687.215 354.55L696.785 357.45ZM1450.5 360H1620V350H1450.5V360ZM1551.72 6.04118L1445.72 353.541L1455.28 356.459L1561.28 8.95882L1551.72 6.04118ZM1823 2.5H1556.5V12.5H1823V2.5ZM1931.79 353.566L1827.79 6.06642L1818.21 8.93358L1922.21 356.434L1931.79 353.566ZM1757.5 360H1927V350H1757.5V360ZM1684.72 132.452L1752.72 356.452L1762.28 353.548L1694.28 129.548L1684.72 132.452ZM1624.78 356.482L1694.28 132.482L1684.72 129.518L1615.22 353.518L1624.78 356.482ZM2001.5 355V7.5H1991.5V355H2001.5ZM2157 350H1996.5V360H2157V350ZM2152 214V355H2162V214H2152ZM2228 276.425L2160.5 210.425L2153.5 217.575L2221 283.575L2228 276.425ZM2284.63 218.308L2221.13 276.308L2227.87 283.692L2291.37 225.692L2284.63 218.308ZM2293 355V222H2283V355H2293ZM2444.5 350H2288V360H2444.5V350ZM2439.5 7.5V355H2449.5V7.5H2439.5ZM2288 12.5H2444.5V2.5H2288V12.5ZM2228.09 76.4803L2291.59 10.9803L2284.41 4.0197L2220.91 69.5197L2228.09 76.4803ZM2160.81 10.8773L2220.81 76.3773L2228.19 69.6227L2168.19 4.12265L2160.81 10.8773ZM1996.5 12.5H2164.5V2.5H1996.5V12.5ZM1094.27 355.516L986.275 8.01606L976.725 10.9839L1084.73 358.484L1094.27 355.516ZM1361.5 352H1089.5V362H1361.5V352ZM1459.2 8.08543L1356.7 355.585L1366.3 358.415L1468.8 10.9146L1459.2 8.08543ZM1300 14.5H1464V4.5H1300V14.5ZM1229.26 246.526L1304.76 11.0264L1295.24 7.97355L1219.74 243.474L1229.26 246.526ZM1144.24 11.0264L1219.74 246.526L1229.26 243.474L1153.76 7.97355L1144.24 11.0264ZM981.5 14.5H1149V4.5H981.5V14.5Z" fill="#2474C3"/>
<defs>
<linearGradient id="paint0_linear_308_357" x1="-1.33572" y1="156.568" x2="2415.21" y2="214.198" gradientUnits="userSpaceOnUse">
<stop stop-color="#B62C46"/>
<stop offset="1" stop-color="#2474C3"/>
</linearGradient>
</defs>
</svg>
