<svg viewBox="0 0 3766 350" fill="none" xmlns="http://www.w3.org/2000/svg">
<g clip-path="url(#clip0_308_358)">
<path fill-rule="evenodd" clip-rule="evenodd" d="M1218.59 241.609L1090.07 -184.999L934 -137.982L1111.22 450.276L1231.26 414.111L1328.07 443.276L1505.29 -144.982L1349.22 -191.999L1218.59 241.609ZM756.143 121.411L855.215 450.275L1011.29 403.258L834.072 -185L756.143 -161.523L678.215 -185L501 403.258L657.072 450.275L756.143 121.411ZM0 0.000457764H118.196L142.471 -22.9152L294 137.601V0.000457764H450V302.853L450.384 303.26L450 303.622V350H400.871L344.913 402.826L295.045 350H294V348.893L163 210.124V350H0V0.000457764ZM1684.14 121.411L1783.22 450.275L1939.29 403.258L1762.07 -185L1684.14 -161.523L1606.22 -185L1429 403.258L1585.07 450.275L1684.14 121.411ZM1990 -14.9995H2050.32L2100.09 -61.9865L2144.45 -14.9995H2153V-5.94031L2219.22 64.2103L2284 -0.275391V-14.9995H2298.79L2337.97 -53.9995L2376.79 -14.9995H2440V48.4946L2440.3 48.7924L2440 49.0874V381H2284V213.406L2218.75 275.002L2167.31 220.516L2153 206.136V370H1990V-14.9995Z" fill="url(#paint0_linear_308_358)"/>
<path fill-rule="evenodd" clip-rule="evenodd" d="M3047.51 -185L3136.95 -158.056L3088.63 2.33801L3225.68 457.258L3141.23 482.698L3042.58 155.218L2959.74 430.202L2870.3 403.258L2993.8 -6.69916L2964.02 -105.56L3029.53 -125.295L3047.51 -185ZM3540.3 -40H3628.5V-1.52588e-05L3745.3 0V88.2L3628.5 88.2V131H3745.3V163H3745.5V321H3745.3V350.2H3540.3V262H3657.3V219.2L3540.3 219.2V163V131V88.2V-1.52588e-05V-40ZM2641 2H2729.2V262H2848V350.2H2729.2V352H2641L2641 350.2L2641 262V2ZM3225.3 -33H3313.5V0H3397.3H3398H3485.5V167H3398V187H3485.5V354H3397.3V353H3229V352H3225.3V-33ZM3313.5 262H3397.3V220H3313.5V262ZM3397.3 88V133H3313.5V88H3397.3Z" fill="url(#paint1_linear_308_358)"/>
</g>
<defs>
<linearGradient id="paint0_linear_308_358" x1="-1.57549e-07" y1="183" x2="2440" y2="212.5" gradientUnits="userSpaceOnUse">
<stop stop-color="#B52D48"/>
<stop offset="1" stop-color="#5D8DBC"/>
</linearGradient>
<linearGradient id="paint1_linear_308_358" x1="2585.5" y1="146" x2="3859" y2="146" gradientUnits="userSpaceOnUse">
<stop stop-color="#5F8CBB"/>
<stop offset="1" stop-color="#2575C3"/>
</linearGradient>
<clipPath id="clip0_308_358">
<rect width="3766" height="350" fill="white"/>
</clipPath>
</defs>
</svg>
