<svg width="70" height="70" viewBox="0 0 70 70" fill="none" xmlns="http://www.w3.org/2000/svg">
    <g clip-path="url(#clip0_49_408)">
        <path d="M0 0H70V70H0V0Z" fill="#F7DF1E" />
        <path
            d="M18.4056 58.4971L23.7622 55.2552C24.7958 57.0875 25.7359 58.6379 27.991 58.6379C30.1525 58.6379 31.5156 57.7924 31.5156 54.5035V32.1369H38.0937V54.5965C38.0937 61.4097 34.0998 64.511 28.2729 64.511C23.0106 64.511 19.956 61.7857 18.4053 58.4965M41.6667 57.7921L47.0228 54.6911C48.4329 56.9937 50.2655 58.6852 53.5073 58.6852C56.2332 58.6852 57.9712 57.3224 57.9712 55.4428C57.9712 53.1875 56.1856 52.3885 53.1784 51.0732L51.5342 50.3678C46.7881 48.3479 43.6401 45.8104 43.6401 40.4537C43.6401 35.5198 47.399 31.7606 53.2727 31.7606C57.4547 31.7606 60.4619 33.2175 62.6232 37.0235L57.5012 40.3129C56.3732 38.2925 55.1521 37.4938 53.2724 37.4938C51.3458 37.4938 50.1241 38.7155 50.1241 40.3129C50.1241 42.2863 51.3458 43.0856 54.1649 44.3073L55.8094 45.0119C61.4012 47.4086 64.5493 49.8518 64.5493 55.349C64.5493 61.27 59.8976 64.5119 53.6481 64.5119C47.5398 64.5119 43.5928 61.5987 41.6664 57.7924"
            fill="black" />
    </g>
    <defs>
        <clipPath id="clip0_49_408">
            <rect width="70" height="70" fill="white" />
        </clipPath>
    </defs>
</svg>