<svg width="70" height="70" viewBox="0 0 70 70" fill="none" xmlns="http://www.w3.org/2000/svg">
    <rect width="70" height="70" />
    <g clip-path="url(#clip0_49_419)">
        <path
            d="M34.5 67C52.4493 67 67 52.4493 67 34.5C67 16.5507 52.4493 2 34.5 2C16.5507 2 2 16.5507 2 34.5C2 52.4493 16.5507 67 34.5 67Z"
            fill="#13AA52" />
        <path
            d="M43.1874 30.5289C41.1346 21.4689 36.283 18.4899 35.7606 17.3518C35.1893 16.5488 34.6104 15.1206 34.6104 15.1206C34.6009 15.0965 34.5857 15.054 34.5679 15.0127C34.5089 15.8157 34.4784 16.1254 33.7192 16.9354C32.5436 17.8545 26.5121 22.9155 26.0214 33.2089C25.5638 42.8091 32.9562 48.5296 33.956 49.2589L34.0696 49.3396V49.3326C34.076 49.3808 34.387 51.6177 34.6054 53.9879H35.3887C35.5724 52.3125 35.8479 50.6484 36.2138 49.0031L36.2773 48.9619C36.7245 48.6412 37.1509 48.2924 37.5538 47.9177L37.5995 47.8764C39.7247 45.9131 43.5454 41.372 43.5079 34.1318C43.5 32.9241 43.3928 31.7191 43.1874 30.5289ZM34.5222 43.8387C34.5222 43.8387 34.5222 30.374 34.9665 30.3766C35.3131 30.3766 35.7619 47.7444 35.7619 47.7444C35.1449 47.6701 34.5222 44.886 34.5222 43.8387Z"
            fill="white" />
    </g>
    <defs>
        <clipPath id="clip0_49_419">
            <rect width="65" height="65" fill="white" transform="translate(2 2)" />
        </clipPath>
    </defs>
</svg>