<svg width="86" height="87" viewBox="0 0 86 87" fill="none" xmlns="http://www.w3.org/2000/svg">
    <path
        d="M59.5 86C49.5 86 -7.00003 54.0001 1.99997 19.5C4.10042 16.4994 8.1817 12.5983 11.1098 9.95832C13.0104 8.24471 15.893 8.35433 17.7278 10.1382L28.5639 20.6733C30.6757 22.7265 30.5689 26.1574 28.4745 28.2283C25.9181 30.7559 22.9229 34.0666 21.9999 36.5C20.2931 41 44.5 68.5 50 63C53.0831 59.9169 56.4804 57.4623 58.8709 55.9003C60.6962 54.7076 63.0635 55.0322 64.6282 56.5508L76.7021 68.2697C78.0453 69.5734 78.3027 71.6265 77.2013 73.1401C73.9816 77.5653 66.8768 86 59.5 86Z"
        fill="white" stroke="white" stroke-linejoin="round" />
    <path d="M43.5 4V4C64.763 4 82 21.237 82 42.5V43.5" stroke="white" stroke-width="8" stroke-linejoin="round" />
    <path d="M44 19V19C56.7025 19 67 29.2975 67 42V44" stroke="white" stroke-width="8" stroke-linejoin="round" />
</svg>