<svg width="80" height="80  " viewBox="0 0 65 65" fill="none" xmlns="http://www.w3.org/2000/svg">
    <path
        d="M18.3218 31.2284C18.3218 32.0287 18.4031 32.6788 18.5575 33.1581C18.7281 33.6334 18.9475 34.1534 19.2481 34.7181C19.344 34.8673 19.3961 35.0405 19.3984 35.2178C19.3984 35.4331 19.2684 35.6525 18.9921 35.8678L17.6271 36.7778C17.4633 36.8961 17.2684 36.9639 17.0665 36.9728C16.8471 36.9728 16.6318 36.8672 16.4165 36.6722C16.1245 36.358 15.8633 36.0165 15.6365 35.6525C15.3962 35.2357 15.1739 34.8087 14.9703 34.3728C13.2803 36.3675 11.1637 37.3669 8.61246 37.3669C6.79652 37.3669 5.34621 36.8428 4.28996 35.8028C3.22964 34.7628 2.68933 33.3734 2.68933 31.6388C2.68933 29.7944 3.33933 28.2994 4.65558 27.17C5.97589 26.0406 7.72683 25.48 9.95308 25.48C10.6843 25.48 11.444 25.545 12.2443 25.6506C13.0446 25.7603 13.8693 25.935 14.7306 26.13V24.5456C14.7306 22.8963 14.3853 21.7466 13.715 21.0763C13.0243 20.4019 11.8543 20.0769 10.1887 20.0769C9.43308 20.0769 8.65714 20.1663 7.85683 20.3613C7.06169 20.5505 6.28106 20.7962 5.52089 21.0966C5.27547 21.2077 5.02306 21.3027 4.76527 21.3809C4.65356 21.4178 4.53744 21.4397 4.41996 21.4459C4.11527 21.4459 3.96496 21.2266 3.96496 20.7716V19.7072C3.96496 19.3619 4.00558 19.0978 4.11527 18.9516C4.27898 18.7522 4.48789 18.5949 4.72464 18.4925C5.47621 18.1025 6.38621 17.7775 7.44652 17.5175C8.50277 17.2331 9.62808 17.1072 10.8184 17.1072C13.39 17.1072 15.2709 17.6922 16.4815 18.8622C17.6718 20.0322 18.2771 21.8116 18.2771 24.2003V31.2284H18.3178H18.3218ZM9.54277 34.5231C10.2537 34.5231 10.989 34.3931 11.769 34.1331C12.549 33.8731 13.2396 33.3938 13.8206 32.7438C14.1689 32.3447 14.4206 31.8706 14.5559 31.3584C14.6859 30.8344 14.7753 30.2088 14.7753 29.4694V28.5594C14.1191 28.4003 13.4545 28.2782 12.7846 28.1938C12.111 28.1066 11.4326 28.0618 10.7534 28.0597C9.30308 28.0597 8.24683 28.3441 7.53183 28.9291C6.81683 29.5141 6.47558 30.3388 6.47558 31.4234C6.47558 32.4391 6.73152 33.1987 7.27183 33.7228C7.79183 34.2631 8.54746 34.5231 9.54277 34.5231ZM26.9018 36.8672C26.5118 36.8672 26.2518 36.8022 26.0812 36.6478C25.9065 36.5178 25.7562 36.2172 25.6262 35.8028L20.5481 19.0369C20.4493 18.7557 20.3839 18.4639 20.3531 18.1675C20.3531 17.8222 20.5237 17.6272 20.869 17.6272H22.9896C23.3959 17.6272 23.6803 17.6922 23.8306 17.8425C24.0053 17.9725 24.1353 18.2772 24.2653 18.6875L27.8971 33.0484L31.269 18.6875C31.3746 18.2569 31.5046 17.9725 31.6793 17.8425C31.9388 17.6836 32.2409 17.6085 32.5446 17.6272H34.2753C34.6815 17.6272 34.9659 17.6922 35.1365 17.8425C35.3112 17.9725 35.4615 18.2772 35.5509 18.6875L38.9634 33.2231L42.7009 18.6875C42.7704 18.373 42.9201 18.0819 43.1356 17.8425C43.3874 17.6832 43.6832 17.6079 43.9806 17.6272H45.9915C46.3368 17.6272 46.5318 17.8019 46.5318 18.1675C46.5318 18.2772 46.5075 18.3869 46.4912 18.5169C46.4561 18.7013 46.4044 18.8821 46.3368 19.0572L41.1246 35.8231C40.9987 36.2578 40.8443 36.5422 40.6737 36.6722C40.4284 36.8291 40.1397 36.9045 39.849 36.8875H37.9925C37.5821 36.8875 37.3018 36.8225 37.1271 36.6722C36.9525 36.5178 36.8021 36.2375 36.7168 35.8028L33.3653 21.8156L30.034 35.7866C29.9284 36.2213 29.7984 36.5016 29.6278 36.6519C29.4531 36.8063 29.1484 36.8713 28.7625 36.8713H26.9018V36.8672ZM54.6812 37.4522C53.5593 37.4537 52.4412 37.3228 51.35 37.0622C50.2693 36.8022 49.4284 36.5178 48.8637 36.1928C48.5184 35.9978 48.2828 35.7825 48.1934 35.5834C48.111 35.3922 48.0682 35.1863 48.0675 34.9781V33.8731C48.0675 33.4181 48.2381 33.1987 48.5631 33.1987C48.6958 33.199 48.8275 33.221 48.9531 33.2638C49.0831 33.3084 49.2781 33.3937 49.4934 33.4831C50.2246 33.8081 51.029 34.0681 51.87 34.2428C52.7353 34.4134 53.5762 34.5028 54.4415 34.5028C55.8065 34.5028 56.8628 34.2631 57.5981 33.7878C57.9513 33.574 58.2416 33.2703 58.4392 32.9078C58.6369 32.5453 58.735 32.1368 58.7234 31.7241C58.7307 31.4454 58.6828 31.168 58.5824 30.9079C58.482 30.6479 58.3311 30.4102 58.1384 30.2087C57.7525 29.7944 57.0171 29.4247 55.9568 29.0794L52.8206 28.1044C51.2443 27.6047 50.0743 26.8653 49.3634 25.8903C48.6674 24.9894 48.2877 23.8843 48.2828 22.7459C48.2828 21.8359 48.4778 21.0316 48.8637 20.3369C49.2537 19.6463 49.7737 19.0369 50.4237 18.5575C51.0737 18.0619 51.805 17.6922 52.6703 17.4322C53.5356 17.1722 54.4415 17.0625 55.3921 17.0625C55.8715 17.0625 56.3671 17.0828 56.8425 17.1478C57.3381 17.2128 57.7931 17.3022 58.2481 17.3916C58.6787 17.4972 59.0931 17.6028 59.479 17.7369C59.869 17.8669 60.1696 17.9969 60.389 18.1269C60.644 18.2551 60.8664 18.4399 61.039 18.6672C61.1781 18.8787 61.2451 19.1295 61.23 19.3822V20.4019C61.23 20.8569 61.0593 21.0966 60.7343 21.0966C60.4466 21.0637 60.1679 20.9754 59.9137 20.8366C58.6073 20.2575 57.1907 19.9692 55.7618 19.9916C54.5309 19.9916 53.5559 20.1866 52.8856 20.6009C52.2153 21.0072 51.87 21.6409 51.87 22.5306C51.87 23.1359 52.0853 23.6559 52.52 24.0703C52.9506 24.4806 53.7509 24.8909 54.8965 25.2606L57.9678 26.2356C59.5237 26.7353 60.649 27.43 61.3193 28.3197C61.9896 29.2094 62.3106 30.2291 62.3106 31.3584C62.3106 32.2928 62.1196 33.1338 61.75 33.8731C61.3673 34.6151 60.8298 35.2662 60.1737 35.7825C59.5034 36.3228 58.7031 36.7169 57.7728 36.9972C56.7978 37.3019 55.7821 37.4522 54.6812 37.4522Z"
        fill="black" />
    <path fill-rule="evenodd" clip-rule="evenodd"
        d="M58.764 47.9903C51.6546 53.2593 41.3196 56.0584 32.435 56.0584C19.9834 56.0584 8.76277 51.4393 0.288398 43.7612C-0.381914 43.1518 0.223398 42.3271 1.01965 42.8065C10.1887 48.1406 21.4946 51.3743 33.1946 51.3743C41.08 51.3743 49.7493 49.725 57.7281 46.3409C58.9184 45.8006 59.934 47.1209 58.764 47.9903Z"
        fill="black" />
    <path fill-rule="evenodd" clip-rule="evenodd"
        d="M61.7256 44.6062C60.8197 43.4403 55.7172 44.0456 53.4056 44.3259C52.715 44.4153 52.6053 43.8059 53.231 43.3509C57.2935 40.4869 63.9763 41.3116 64.7522 42.2662C65.5322 43.2412 64.5369 49.9444 60.7303 53.1537C60.1494 53.6534 59.5888 53.3975 59.8488 52.7475C60.71 50.5944 62.6356 45.76 61.7256 44.6103V44.6062Z"
        fill="black" />
</svg>