<svg width="70" height="70" viewBox="0 0 70 70" fill="none" xmlns="http://www.w3.org/2000/svg">
    <rect width="70" height="70" />
    <path
        d="M53.4299 20.8933C63.975 31.4384 63.975 48.3544 53.4299 58.9728C43.1045 69.5178 26.1152 69.5178 15.5701 58.9728C5.02504 48.4277 5.02504 31.4384 15.5701 20.8933L34.4634 2V11.4466L32.7059 13.2042L20.1836 25.7264C12.2748 33.4888 12.2748 46.2308 20.1836 54.1396C27.946 62.0484 40.6879 62.0484 48.5968 54.1396C56.5056 46.3772 56.5056 33.6353 48.5968 25.7264L53.4299 20.8933ZM43.9833 19.7216C42.042 19.7216 40.4683 18.1479 40.4683 16.2066C40.4683 14.2653 42.042 12.6915 43.9833 12.6915C45.9246 12.6915 47.4983 14.2653 47.4983 16.2066C47.4983 18.1479 45.9246 19.7216 43.9833 19.7216Z"
        fill="#EE4C2C" />
</svg>