<svg viewBox="0 0 95 51" fill="none" xmlns="http://www.w3.org/2000/svg">
    <path fill-rule="evenodd" clip-rule="evenodd"
        d="M75.2757 23.9699L75.16 23.7067L72.6373 18.5725C72.5936 18.5097 72.5737 18.4315 72.5815 18.3536C72.5892 18.2756 72.6241 18.2037 72.6792 18.1523L76.6691 13.1187C76.7235 13.0552 76.7604 12.9768 76.7757 12.8922L75.6107 13.2192L70.7741 14.609C70.6241 14.6524 70.5556 14.605 70.4809 14.4717L67.7238 9.54273C67.6761 9.44661 67.6074 9.36439 67.5235 9.30319L67.2951 10.6153L66.5283 15.2508L66.4491 15.752C66.4362 15.9114 66.36 15.9703 66.226 16.016L60.5289 17.9495C60.4528 17.9781 60.3645 18.0149 60.2746 18.1016L64.9575 20.0997L64.8204 20.2158L61.9079 22.24C61.7922 22.3218 61.7 22.3324 61.5698 22.2694L58.084 20.6016C57.5624 20.3515 57.0941 20.0196 56.7286 19.5388C55.9024 18.454 56.0662 17.2203 57.1664 16.4665C57.5348 16.2231 57.93 16.03 58.3429 15.8918L63.9394 13.9828C64.0955 13.9305 64.1679 13.8553 64.1983 13.6721L64.9643 9.03667C65.1029 8.21913 65.1775 7.36398 65.5506 6.60693C65.7029 6.31589 65.8666 6.03138 66.0714 5.78694C66.8123 4.90399 67.8471 4.86965 68.6299 5.71091C68.8941 5.99459 69.1218 6.32979 69.3182 6.67397L71.8766 11.2301C71.8899 11.2684 71.9104 11.3033 71.9368 11.3327C71.9633 11.362 71.9952 11.3851 72.0304 11.4005C72.0657 11.4158 72.1035 11.4232 72.1415 11.422C72.1795 11.4208 72.2169 11.4112 72.2513 11.3937L78.4951 9.61304C78.9253 9.49041 79.3601 9.44626 79.8009 9.53537C80.7619 9.72831 81.1814 10.514 80.8563 11.5097C80.7086 11.9635 80.4527 12.3469 80.1664 12.7091L75.8178 18.225C75.6983 18.3747 75.696 18.4834 75.7783 18.6502L78.3778 23.9421C78.5849 24.3648 78.7433 24.803 78.7479 25.2878C78.7585 26.3915 78.007 27.2932 76.9859 27.4543C76.4148 27.536 75.8818 27.4134 75.3473 27.236L71.4259 25.9541C71.374 25.946 71.3266 25.9183 71.292 25.8761C71.2574 25.8338 71.2379 25.7798 71.237 25.7236L70.7634 22.7608C70.7589 22.7338 70.7665 22.7035 70.771 22.6439L75.2749 23.9781"
        fill="#E25A1C" />
    <path fill-rule="evenodd" clip-rule="evenodd"
        d="M72.7303 38.3694L69.1972 38.3661C69.1309 38.3723 69.0643 38.3576 69.0056 38.3237C68.9469 38.2899 68.8986 38.2384 68.8668 38.1756L64.5022 31.0794L63.6113 38.3506H60.5275L60.6341 37.4055L62.4082 22.935C62.4187 22.8572 62.4569 22.7868 62.5149 22.7388L65.7129 20.5314C65.7281 20.5208 65.751 20.5192 65.8043 20.5028L64.8426 28.3725L64.8806 28.4003L69.9274 22.3938L70.4239 25.471C70.4498 25.6214 70.4125 25.7163 70.3188 25.8201L67.0858 29.468L66.9335 29.6315L67.0325 29.7999L72.6062 38.1961C72.6397 38.2468 72.6884 38.2778 72.7303 38.3318V38.3759M36.1813 31.1014C36.1341 30.8431 36.1006 30.4638 35.994 30.1106C35.4777 28.4003 33.8429 27.4617 32.151 27.8844C30.2946 28.348 28.9682 29.9152 28.7763 31.9476C28.6339 33.4519 29.3885 34.9014 30.7918 35.445C31.9218 35.8833 33.0099 35.7001 34.0203 35.0494C35.3605 34.1869 36.0861 32.9058 36.1828 31.1006L36.1813 31.1014ZM28.0301 37.4513L27.7659 39.5753L27.4324 42.3435C27.4194 42.4514 27.389 42.507 27.2816 42.507L24.7407 42.5029C24.7217 42.5029 24.7026 42.4915 24.6646 42.4784L24.8191 41.1703L25.3826 36.5798L26.0488 31.3344C26.5407 28.2564 28.9728 25.6116 31.8266 24.9437C33.4812 24.5595 35.0643 24.7377 36.5095 25.7367C37.9501 26.7341 38.7763 28.1894 38.9643 30.0002C39.2309 32.573 38.3491 34.7093 36.6465 36.4752C35.5295 37.6361 34.1917 38.3719 32.649 38.6212C31.0599 38.8787 29.5652 38.5942 28.2326 37.5878C28.1832 37.551 28.1306 37.5192 28.0461 37.4619"
        fill="#3C3A3E" />
    <path fill-rule="evenodd" clip-rule="evenodd"
        d="M26.6488 22.8246L23.8635 25.0508L23.4272 24.3166C23.0282 23.7182 22.5325 23.2702 21.8129 23.2162C21.5304 23.1873 21.2456 23.2304 20.9815 23.3419C20.7175 23.4534 20.4816 23.6302 20.2931 23.858C19.9276 24.2831 19.8804 24.8856 20.2215 25.3647C20.5969 25.892 21.0081 26.3932 21.4276 26.8813L23.5414 29.2832C24.1703 30.0239 24.6714 30.8545 24.8259 31.8666C25.0102 33.0701 24.7863 34.2163 24.2564 35.2742C23.2665 37.2314 21.7299 38.3677 19.69 38.7226C18.7893 38.8795 17.8908 38.8485 17.0113 38.5705C15.8448 38.2026 15.0316 37.381 14.5107 36.2217C14.3265 35.8129 14.1849 35.3796 14.0173 34.9398L17.038 33.2041L17.1293 33.4396C17.3007 33.8075 17.4339 34.1999 17.6623 34.54C18.2928 35.5456 19.3116 35.853 20.3449 35.3551C20.6138 35.2242 20.8628 35.0506 21.0835 34.84C21.749 34.2056 21.8738 33.3219 21.388 32.5231C21.1048 32.0653 20.7507 31.6533 20.3982 31.242L17.9121 28.2989C17.3562 27.6097 16.9801 26.8052 16.8613 25.8822C16.7319 24.8742 16.9184 23.9226 17.4073 23.074C18.6217 20.9647 20.3875 19.8667 22.7221 19.9575C24.0531 20.009 25.113 20.6769 25.9354 21.7888L26.6564 22.8148M49.2041 34.1508L48.7511 37.8363C48.7435 37.8976 48.6978 37.9802 48.6498 38.0047C46.3518 39.1477 43.3251 38.9883 41.4375 36.6869C40.4232 35.4507 39.9907 33.9833 40.0615 32.3506C40.2085 28.5711 43.1271 25.2723 46.6099 24.8112C48.649 24.5414 50.4369 25.1333 51.8181 26.8338C52.7593 27.9923 53.1941 29.3682 53.1301 30.9027C53.0875 31.9116 52.9397 32.9155 52.8232 33.9277L52.3017 38.1903C52.2956 38.241 52.2864 38.2909 52.275 38.3538H49.5338L49.6427 37.3891L50.2351 32.4659C50.344 31.4423 50.2755 30.4261 49.8392 29.4778C49.3823 28.4697 48.598 27.9367 47.5747 27.8206C45.4579 27.5803 43.4431 29.1597 42.9908 31.3965C42.6923 32.873 43.1629 34.289 44.2578 35.0714C45.3254 35.8342 46.469 35.8366 47.6325 35.3412C48.2226 35.091 48.7252 34.6937 49.2034 34.1582M60.7818 25.0998L60.4064 28.1607C59.8254 28.1607 59.2551 28.1574 58.6855 28.1623C58.2241 28.1664 57.8023 28.4861 57.6637 28.9496C57.6104 29.1311 57.5891 29.3257 57.5662 29.5219L56.7028 36.5732L56.4873 38.3604H53.6243L53.7811 37.0343L54.3415 32.4659L54.841 28.5147C55.0984 26.7545 56.7294 25.1922 58.3833 25.1137L60.7803 25.1072"
        fill="#3C3A3E" />
    <path
        d="M30.4819 20.6434H31.1915L31.024 19.4988L30.4819 20.6434ZM31.3027 21.389H30.1225L29.7471 22.1779H28.911L30.756 18.4703H31.5616L32.1898 22.1697H31.4146L31.3034 21.3808"
        fill="#3C3A3E" />
    <path
        d="M35.5271 19.2224H35.1068L34.9652 20.0768H35.3855C35.6391 20.0768 35.8424 19.8969 35.8424 19.5601C35.8424 19.3369 35.7145 19.2224 35.5271 19.2224ZM34.5091 18.4867H35.6132C36.1919 18.4867 36.6031 18.8562 36.6031 19.4922C36.6031 20.2918 36.0761 20.8306 35.3261 20.8306H34.8502L34.6271 22.1852H33.9083L34.516 18.4858"
        fill="#3C3A3E" />
    <path
        d="M39.0404 20.6434H39.7501L39.5826 19.4988L39.0404 20.6434ZM39.8613 21.389H38.6811L38.3057 22.1779H37.4696L39.3146 18.4703H40.1202L40.7484 22.1697H39.9732L39.862 21.3808"
        fill="#3C3A3E" />
    <path
        d="M44.5281 22.0462C44.2836 22.1689 44.0175 22.2338 43.7476 22.2367C42.8362 22.2367 42.2628 21.5009 42.2628 20.5828C42.2628 19.408 43.1765 18.418 44.2806 18.418C44.5547 18.418 44.8022 18.4883 45.004 18.6085L44.9027 19.4955C44.7504 19.3156 44.5068 19.1905 44.2037 19.1905C43.5755 19.1905 43.0182 19.8004 43.0182 20.4986C43.0182 21.0382 43.3319 21.4551 43.8291 21.4551C44.1178 21.454 44.3978 21.3486 44.624 21.1559L44.5273 22.0372M48.9254 20.6858H47.4254L47.1817 22.1762H46.4629L47.0705 18.4768H47.7901L47.5464 19.9484H49.0465L49.2901 18.4768H50.0097L49.4021 22.1762H48.6825L48.9254 20.6858ZM51.5638 22.177L52.1714 18.4776H54.075L53.9532 19.2134H52.7691L52.6473 19.9312H53.7415L53.6197 20.6768H52.5179L52.396 21.4224H53.5869L53.4651 22.168H51.5554"
        fill="#3C3A3E" />
</svg>