<svg width="70" height="70" viewBox="0 0 70 70" fill="none" xmlns="http://www.w3.org/2000/svg">
    <rect width="70" height="70" />
    <g clip-path="url(#clip0_49_413)">
        <path
            d="M11.8881 11.1099C24.7306 -1.33126 45.2652 -0.996815 57.7063 11.9126C59.111 10.0397 60.315 7.96617 61.1845 5.82576C65.2647 18.2669 67.7395 28.7014 66.8031 36.7949C66.3349 43.6175 63.6593 50.1725 59.2447 55.3897C47.74 69.0349 27.2723 70.774 13.6272 59.2692L13.3661 59.037L13.3522 59.0279C13.3095 58.9981 13.2673 58.9671 13.2258 58.9348C13.1013 58.8379 12.9882 58.7325 12.8865 58.6199L12.8499 58.5782L12.4232 58.199C12.007 57.8423 11.5908 57.4856 11.2216 57.0818L11.0854 56.9282C-1.35575 44.0857 -0.954418 23.5511 11.8881 11.1099ZM16.704 54.654C15.5 53.7175 13.7609 53.8513 12.8245 55.0553C12.0011 56.114 12.0051 57.5864 12.8367 58.563L12.8499 58.5782L13.3661 59.037L13.4168 59.0715C14.5859 59.8403 16.1589 59.6814 17.0562 58.5948L17.1053 58.5335C18.0418 57.3295 17.8411 55.5904 16.704 54.654ZM60.8501 9.17015C57.5057 16.1934 49.2115 21.5444 42.0545 23.2166C35.2989 24.8219 29.4127 23.4842 23.1921 25.8921C9.01189 31.3101 9.27944 48.1658 17.0384 51.9785L17.5067 52.246C17.5067 52.246 23.1112 51.1316 28.6535 49.66L29.1282 49.5331C31.3419 48.9365 33.5196 48.2862 35.2989 47.6307C44.5294 44.2194 54.6964 35.7916 58.0408 26.0259C56.3017 36.1929 47.5394 46.0254 38.777 50.5069C34.0949 52.9149 30.4829 53.45 22.7908 56.1255C21.8544 56.4599 21.1186 56.7944 21.1186 56.7944C21.2125 56.7814 21.3063 56.7688 21.4 56.7565L21.5869 56.7323L21.7728 56.7089C23.4716 56.4983 24.9981 56.3931 24.9981 56.3931C35.9008 55.858 53.0242 59.4699 60.9838 48.8347C69.1442 37.9989 64.5958 20.4742 60.8501 9.17015Z"
            fill="#6DB33F" />
        <path
            d="M16.704 54.654C17.8411 55.5904 18.0418 57.3295 17.1053 58.5335C16.1689 59.7375 14.4298 59.8712 13.2258 58.9348C12.0218 57.9984 11.8881 56.2593 12.8245 55.0553C13.7609 53.8513 15.5 53.7175 16.704 54.654ZM60.8501 9.17017C64.5958 20.4742 69.1442 37.9989 60.9838 48.8347C53.0242 59.4699 35.9009 55.858 24.9981 56.3931C24.9981 56.3931 23.4716 56.4983 21.7728 56.7089L21.5869 56.7323C21.4315 56.7521 21.275 56.7728 21.1186 56.7944C21.1186 56.7944 21.8544 56.4599 22.7908 56.1255C30.4829 53.45 34.0949 52.9149 38.777 50.5069C47.5394 46.0254 56.3017 36.1929 58.0408 26.0259C54.6964 35.7916 44.5294 44.2195 35.2989 47.6307C28.9445 49.9718 17.5067 52.246 17.5067 52.246L17.0384 51.9785C9.27944 48.1658 9.01189 31.3101 23.1921 25.8922C29.4127 23.4842 35.2989 24.8219 42.0545 23.2166C49.2116 21.5444 57.5057 16.1934 60.8501 9.17017Z"
            fill="white" />
    </g>
    <defs>
        <clipPath id="clip0_49_413">
            <rect width="65" height="65" fill="white" transform="translate(2 2)" />
        </clipPath>
    </defs>
</svg>